<svg width="14px" height="14px" viewBox="1160 12 14 14" version="1.1" xmlns="http://www.w3.org/2000/svg" xmlns:xlink="http://www.w3.org/1999/xlink">
    <!-- Generator: Sketch 42 (36781) - http://www.bohemiancoding.com/sketch -->
    <desc>Created with Sketch.</desc>
    <defs></defs>
    <g id="XMLID_184_" stroke="none" stroke-width="1" fill-rule="evenodd" transform="translate(1160.000000, 12.000000)">
        <path d="M0.242307692,4.64864865 L3.13923077,4.64864865 L3.13923077,14 L0.242307692,14 L0.242307692,4.64864865 Z M1.69615385,0 C2.62230769,0 3.37615385,0.756756757 3.37615385,1.68648649 C3.37615385,2.61621622 2.62230769,3.37297297 1.69615385,3.37297297 C0.764615385,3.37297297 0.0161538462,2.61621622 0.0161538462,1.68648649 C0.0161538462,0.756756757 0.764615385,0 1.69615385,0 L1.69615385,0 Z" id="XMLID_195_" fill="#000000" fill-rule="nonzero"></path>
        <path d="M4.95923077,4.64864865 L7.73230769,4.64864865 L7.73230769,5.92972973 L7.77,5.92972973 C8.15769231,5.19459459 9.1,4.42162162 10.5107692,4.42162162 C13.44,4.42162162 13.9838462,6.35675676 13.9838462,8.87567568 L13.9838462,14 L11.0923077,14 L11.0923077,9.45405405 C11.0923077,8.36756757 11.0761538,6.97297297 9.59,6.97297297 C8.08230769,6.97297297 7.85615385,8.15675676 7.85615385,9.37297297 L7.85615385,14 L4.96461538,14 L4.95923077,4.64864865 L4.95923077,4.64864865 Z" id="XMLID_192_" fill="#000000" fill-rule="nonzero"></path>
    </g>
</svg>
