<svg width="16px" height="13px" viewBox="1129 14 16 13" version="1.1" xmlns="http://www.w3.org/2000/svg" xmlns:xlink="http://www.w3.org/1999/xlink">
    <!-- Generator: Sketch 42 (36781) - http://www.bohemiancoding.com/sketch -->
    <desc>Created with Sketch.</desc>
    <defs></defs>
    <path d="M1134.01855,27 C1140.04382,27 1143.33944,21.9975555 1143.33944,17.6624382 C1143.33944,17.5219483 1143.33944,17.3814583 1143.32942,17.2359509 C1143.97052,16.7693237 1144.52146,16.1973291 1144.96221,15.5350195 C1144.36619,15.8009468 1143.73011,15.9765592 1143.079,16.0518217 C1143.76517,15.6403869 1144.27604,14.9981473 1144.52146,14.2354878 C1143.88036,14.6168175 1143.17416,14.8877624 1142.44291,15.0332698 C1141.2008,13.7136681 1139.12726,13.6484406 1137.81002,14.8927799 C1136.95857,15.6955794 1136.59795,16.8897436 1136.8634,18.0287155 C1134.22891,17.8982605 1131.77473,16.6489038 1130.1119,14.601765 C1129.24041,16.1019966 1129.68617,18.0186805 1131.12362,18.9820399 C1130.60273,18.9669874 1130.09186,18.8264975 1129.63608,18.5706051 L1129.63608,18.6107451 C1129.63608,20.1711867 1130.73796,21.5158758 1132.26557,21.8269606 C1131.78475,21.9574156 1131.27888,21.9774856 1130.78805,21.8821531 C1131.21878,23.2168073 1132.44587,24.1350092 1133.84826,24.1600967 C1132.68628,25.0732812 1131.25384,25.5700134 1129.78133,25.5700134 C1129.52089,25.5700134 1129.26044,25.5549609 1129,25.5248559 C1130.49254,26.4882153 1132.23551,27 1134.01855,27" id="XMLID_22_" stroke="none" fill="#000000" fill-rule="nonzero"></path>
</svg>
