<?xml version="1.0" encoding="UTF-8"?>
<svg width="13px" height="13px" viewBox="0 0 13 13" version="1.1" xmlns="http://www.w3.org/2000/svg" xmlns:xlink="http://www.w3.org/1999/xlink">
  <path d="M23.4998412,12.3759924 C20.2599238,12.3759924 17.6241664,9.73991743 17.6241664,6.5 C17.6241664,5.14322007 18.0873293,3.89345824 18.862496,2.89774532 C18.9129883,2.93108923 18.9603049,2.97411877 19.001429,3.03382026 C19.0579549,3.11511591 19.1708479,3.15719276 19.1856145,3.28564624 C19.1897428,3.32153064 19.2604001,3.35058749 19.2997777,3.38202604 C19.3054938,3.34423627 19.3046999,3.30358844 19.3196253,3.2696094 C19.324865,3.25706574 19.382026,3.24817402 19.3910765,3.25912988 C19.4831693,3.36789457 19.5482693,3.52445221 19.663544,3.5841537 C19.8991743,3.70657352 19.9306129,3.88694824 19.906637,4.09749127 C19.8493172,4.45903461 20.0825659,4.65512861 20.2989838,4.86186091 C20.3785329,4.9379168 20.46745,5.01079708 20.5242934,5.1020959 C20.6579867,5.31803747 20.7859638,5.53620197 20.9755478,5.70847888 C21.0104795,5.74071134 21.0646237,5.75119085 21.1100349,5.77199111 C21.0917752,5.73229597 21.0795491,5.68894887 21.0554144,5.65242934 C20.9976183,5.56573515 20.9318831,5.48380438 20.8751985,5.39552239 C20.861067,5.37376945 20.8691648,5.3366148 20.867577,5.30755795 C20.890759,5.31470308 20.9220387,5.31549698 20.9372817,5.33185138 C21.0952683,5.49523658 21.3267704,5.63750397 21.3880597,5.83280406 C21.479041,6.12210225 21.7146713,6.18259765 21.911718,6.30168307 C22.0241346,6.36916481 22.1689425,6.38853604 22.3286758,6.36789457 C22.4539536,6.35154017 22.5935218,6.51587806 22.7381708,6.56224198 C22.871229,6.60384249 22.970308,6.6413147 23.0319149,6.78532868 C23.1000318,6.9452207 23.3912353,7.10812956 23.4718958,7.04541124 C23.6419498,6.91203557 23.6681486,7.06319466 23.7084789,7.15258812 C23.7864401,7.32168943 23.720705,7.47729438 23.5808193,7.56906955 C23.3674182,7.71022547 23.5416005,7.94871388 23.4198158,8.10590664 C23.4156875,8.11067005 23.4512544,8.14385519 23.4649095,8.16576691 C23.5403303,8.28120038 23.6240076,8.392188 23.6884725,8.51397269 C23.7986662,8.72308669 23.8963163,8.93489997 24.1382979,9.03397904 C24.3096221,9.10416005 24.3478882,9.25039695 24.3261353,9.42696094 C24.2765957,9.82200699 24.2378533,10.2189584 24.0805017,10.5912988 C24.0549381,10.6527469 24.0601778,10.7273738 24.0535091,10.7962845 C24.0398539,10.9423627 24.0373134,11.0898698 24.0125437,11.2332487 C23.9917434,11.3547158 23.9099714,11.4738012 23.9169578,11.589711 C23.9320419,11.8321689 24.0261988,12.0098444 24.1735472,12.1051127 C24.3029533,12.0900286 24.4307717,12.0706574 24.5573198,12.0479517 C24.3558272,11.8944109 24.3737695,11.8759924 24.593363,11.6536996 C24.6290886,11.617974 24.6476659,11.5009527 24.6413147,11.4980946 C24.5255637,11.4474436 24.5924103,11.4074309 24.6302001,11.3426485 C24.6822801,11.2521435 24.90886,11.2243569 24.7510321,11.0468403 C24.7484916,11.044141 24.7762782,11.0009527 24.7934265,10.9977771 C24.9537949,10.9722134 25.0552556,10.7880279 25.2429343,10.8324865 C25.2659574,10.8375675 25.3153382,10.8035884 25.3242299,10.7777072 C25.3539219,10.6902191 25.3439187,10.5684344 25.4009209,10.5161956 C25.4642744,10.4583995 25.5866942,10.4685614 25.6791045,10.4356939 C25.7157828,10.4221975 25.7400762,10.3750397 25.7689743,10.3416958 C25.8410607,10.2570657 25.9137822,10.1735472 25.983328,10.0873293 C26.0219117,10.0398539 26.0893935,9.98475707 26.0847888,9.9387107 C26.0539854,9.65147666 26.2750079,9.59971419 26.46094,9.56716418 C26.664973,9.53175611 26.7721499,9.39234678 26.7975548,9.24499841 C26.8501111,8.93998095 26.9472849,8.67783423 27.1435376,8.42981899 C27.2877104,8.24738012 27.233725,8.13416958 27.0122261,8.04763417 C26.7100667,7.92870753 26.3934582,7.84709432 26.0939981,7.72308669 C26.0069863,7.68672594 25.9585583,7.68291521 25.8869482,7.72657987 C25.864719,7.7410289 25.8245475,7.7246745 25.7918387,7.72261035 C25.8113687,7.69990473 25.8269292,7.66640203 25.8512226,7.65592252 C25.9858685,7.59955541 25.9976183,7.55287393 25.8898063,7.43331216 C25.7670689,7.29596697 25.6616386,7.16878374 25.4552239,7.19434741 C25.4204509,7.19879327 25.3736107,7.16592569 25.3439187,7.13829787 C25.1243252,6.93601143 24.8999682,6.74976183 24.5706574,6.79199746 C24.5304859,6.79691966 24.4745951,6.79374405 24.4482375,6.76945062 C24.3523341,6.68418546 24.3127977,6.74626866 24.2672277,6.82137186 C24.2513496,6.84741188 24.220705,6.86360749 24.1962528,6.88424897 C24.1887901,6.85233407 24.1691013,6.81660845 24.176564,6.78834551 C24.2064147,6.68259765 24.1822801,6.65322325 24.0820896,6.71070181 C23.9129883,6.80771674 23.802477,6.96443315 23.5330264,6.91076532 C23.2726262,6.8594792 23.2100667,6.89266434 23.2353128,6.59939663 C23.2524611,6.39980946 23.2316608,6.37853287 23.0293744,6.38631312 C22.8626548,6.39329946 22.8288346,6.35074627 22.8759924,6.18482058 C22.8882185,6.14322007 22.9158463,6.10717688 22.9323595,6.06684662 C22.9693554,5.97999365 22.9398222,5.92664338 22.8450302,5.92854875 C22.7535726,5.93029533 22.6738647,5.92315021 22.619403,6.05033344 C22.5674817,6.17291204 22.4158463,6.20165132 22.2837409,6.13305811 C22.1005081,6.0384249 22.0222293,5.740235 22.1017783,5.47157828 C22.135281,5.35916164 22.3748809,5.25341378 22.5458876,5.25992379 C22.6246427,5.26357574 22.7073674,5.24007621 22.7831057,5.21498889 C22.979041,5.14861861 23.170054,5.21673547 23.2789775,5.38409019 C23.3277231,5.45824071 23.40235,5.51603684 23.4650683,5.58097809 C23.4590346,5.48396316 23.4553827,5.38631312 23.4460146,5.28929819 C23.4433153,5.26484598 23.4129883,5.2410289 23.4152112,5.2181645 C23.4204509,5.16370276 23.4199746,5.08780565 23.4539536,5.0604954 C23.625913,4.9223563 23.8242299,4.82534138 23.8869482,4.57367418 C23.9452207,4.3431248 24.2689743,4.34010797 24.3561448,4.10463639 C24.3728168,4.05938393 24.5406478,4.01159098 24.5635122,4.03604319 C24.7321372,4.21467132 24.8813909,4.02397587 25.0368371,4.02381708 C25.0708161,4.02381708 25.1043188,3.96697364 25.1381391,3.93569387 C25.1030486,3.92521435 25.0671642,3.91632264 25.0323912,3.90393776 C24.937758,3.86948238 24.8113687,3.88821848 24.7864401,3.73753573 C24.7821531,3.71228962 24.6902191,3.69339473 24.637504,3.68799619 C24.5827247,3.68228009 24.52604,3.69720546 24.4698317,3.7033979 C24.5217529,3.66020959 24.5681169,3.59622102 24.6270245,3.58018419 C24.6940299,3.56224198 24.7989838,3.56081296 24.8405843,3.60098444 C24.911718,3.67005399 24.9549063,3.64877739 25.0204827,3.61225786 C25.0965386,3.56954589 25.1786281,3.53636075 25.2591299,3.50238171 C25.2885043,3.48952048 25.3213719,3.48523341 25.3521753,3.47729438 C25.3448714,3.51365513 25.340108,3.55049222 25.3302636,3.58653541 C25.3137504,3.64671324 25.2951731,3.70625595 25.2772309,3.76611623 C25.3975865,3.7696094 25.5179422,3.7753255 25.6381391,3.77405526 C25.6419498,3.77405526 25.658463,3.68275643 25.6470308,3.67719911 C25.5122261,3.60765322 25.3586853,3.55462051 25.4780883,3.35138139 C25.4814227,3.34598285 25.4314068,3.30930454 25.4055256,3.28786916 C25.238806,3.15211178 25.0647825,3.02492855 24.9075897,2.87948555 C24.8172436,2.79549063 24.7616704,2.70816132 24.6355986,2.84010797 C24.602731,2.8758336 24.4349,2.85805017 24.4201334,2.82502382 C24.3194665,2.5906637 24.0946332,2.62114957 23.9160051,2.5849476 C23.7465862,2.55080978 23.6379803,2.6789457 23.6903779,2.84407748 C23.735154,2.9836456 23.9099714,3.12623055 23.6024135,3.15512861 C23.6074944,3.19466497 23.6189266,3.23483646 23.6163862,3.27373769 C23.6120991,3.32756431 23.5970149,3.3807558 23.586853,3.43362972 C23.5401715,3.40806605 23.4760241,3.39345824 23.4495078,3.35408066 C23.3510638,3.20847888 23.2261035,3.14306129 23.0482693,3.11305176 C22.8386789,3.0776437 22.6360749,2.98888536 22.436329,2.90854239 C22.2989838,2.85360432 22.297396,2.74547475 22.4110829,2.6683074 C22.5460464,2.57891394 22.7151477,2.53556685 22.8391553,2.43505875 C22.9976183,2.30644649 23.119403,2.56605272 23.2716735,2.44696729 C23.3061289,2.41949825 23.3944109,2.45982852 23.4583995,2.46903779 C23.3932995,2.42838997 23.3297872,2.38536043 23.2632582,2.34788822 C23.2075262,2.31740235 23.1481423,2.29374405 23.0906637,2.26706891 C23.1481423,2.26071769 23.2103842,2.26421086 23.2624643,2.24388695 C23.3177199,2.22229279 23.4118768,2.16354398 23.4064782,2.14655446 C23.3840902,2.07319784 23.3464592,2.00285805 23.463798,2.00365195 C23.5793903,2.00428708 23.7880279,2.01444903 23.7942204,2.04922198 C23.8216894,2.20466815 23.8556685,2.22721499 23.9752302,2.12448396 C23.9917434,2.11098762 24.0368371,2.13051762 24.0685932,2.13464592 C24.055732,2.16275008 24.0487456,2.20466815 24.0269927,2.21594157 C23.944268,2.25770086 23.8561448,2.28786916 23.7716735,2.3251826 C23.743093,2.3374087 23.7189584,2.35884408 23.6929184,2.37630994 C23.7184821,2.39345824 23.741664,2.42092728 23.7691331,2.42664338 C23.9647507,2.46586218 24.1600508,2.50587488 24.3572563,2.53477294 C24.4723722,2.55160368 24.5900286,2.55017466 24.7067323,2.55462051 C24.7303906,2.5555732 24.7548428,2.54604636 24.7786599,2.54144173 C24.766275,2.5114322 24.7580184,2.47745316 24.7392823,2.45220705 C24.7021277,2.40377898 24.6586218,2.36122579 24.6178152,2.31581454 C24.6829152,2.32740553 24.7478565,2.34090187 24.8134328,2.35058749 C24.8464592,2.35550969 24.8848841,2.36360749 24.9129883,2.35154017 C24.9496666,2.33613846 24.9784058,2.30073039 25.010162,2.27421404 C24.9841219,2.25754208 24.9560178,2.24166402 24.9322007,2.22213401 C24.7902509,2.10844713 24.5573198,2.13528104 24.4734836,1.9256907 C24.4661797,1.90616069 24.4091775,1.90758971 24.3758336,1.89711019 C24.1848206,1.83391553 23.9966656,1.759765 23.8026358,1.70943157 C23.5754208,1.64988885 23.3402668,1.62114957 23.1344871,1.77469038 C23.0579549,1.83201016 23.0314386,1.8210543 23.0098444,1.73817085 C22.9784058,1.61702128 22.8929819,1.64893617 22.8242299,1.68561448 C22.7716735,1.71467132 22.7346777,1.77024452 22.6908542,1.8145443 C22.7408701,1.85757383 22.7875516,1.90584312 22.8424897,1.94140997 C22.8685297,1.95839949 22.9123531,1.94537949 22.9452207,1.955859 C22.9899968,1.96999047 23.0322325,1.99380756 23.0757383,2.01381391 C23.0498571,2.04429978 23.0295332,2.09241029 22.9973007,2.10257225 C22.9571292,2.11575103 22.9050492,2.10400127 22.8604319,2.09304541 C22.6956177,2.05112734 22.5501747,1.97507145 22.4364878,1.84328358 C22.4353763,1.84217212 22.3612258,1.88202604 22.3597968,1.90536678 C22.3551921,1.95570022 22.3958399,2.01444903 22.3812321,2.05811369 C22.366148,2.10288981 22.2800889,2.17053033 22.2732614,2.16608447 C22.2060972,2.11336932 22.1554462,2.01047952 22.0865354,1.99745951 C22.0196888,1.98523341 22.0960622,2.18831375 21.936329,2.16798984 C21.8064465,2.15131788 21.6730708,2.16147983 21.5416005,2.15544617 C21.5208003,2.15433471 21.501429,2.12861226 21.4806288,2.11368688 C21.4973007,2.0955859 21.5111146,2.0677993 21.5309622,2.06176564 C21.5808193,2.04668149 21.6351223,2.0457288 21.6856145,2.03223245 C21.7161003,2.02397587 21.7419816,2.00111146 21.7702445,1.9844395 C21.741664,1.95887583 21.7173706,1.92410289 21.684503,1.90743093 C21.533979,1.83296285 21.4461734,1.70514449 21.4223563,1.52604001 C21.4188631,1.5 21.3940934,1.45697047 21.3759924,1.45490632 C21.2781836,1.44506192 21.1791045,1.44474436 21.080343,1.4436329 C21.0068276,1.442839 20.9314068,1.45697047 20.8602731,1.44506192 C20.7737377,1.43108923 20.6879962,1.40965386 20.6024135,1.39075897 C21.4582407,0.903143855 22.4471261,0.623213719 23.5006351,0.623213719 C24.0366783,0.623213719 24.5558908,0.69657034 25.0495395,0.831692601 C25.0090505,0.849317244 24.9682439,0.868370911 24.9290251,0.891076532 C24.7048269,1.02159416 24.4885678,1.16497301 24.2705621,1.30438234 C24.2553191,1.31422674 24.2505557,1.34010797 24.2408701,1.3586853 C24.3420133,1.37218164 24.3782153,1.48840902 24.5346142,1.46030486 C24.7519848,1.42219752 24.9944427,1.50127024 25.2216577,1.55128612 C25.2812004,1.56446491 25.3547158,1.64909495 25.3674182,1.71197205 C25.3925056,1.83343919 25.4169578,1.8937758 25.5447761,1.81089235 C25.5574786,1.8023182 25.5903461,1.82422991 25.6135281,1.83201016 C25.6070181,1.84598285 25.6035249,1.86837091 25.5932042,1.87186408 C25.4063195,1.93283582 25.5395364,2.01444903 25.5544617,2.11575103 C25.6054303,2.46586218 25.8158145,2.61733884 26.124484,2.72435694 C26.2746904,2.77691331 26.3064465,2.74880915 26.3807558,2.62734201 C26.4545888,2.50746269 26.5017466,2.34741188 26.6800572,2.30644649 C26.923309,2.25007939 27.1632264,2.17989838 27.4042553,2.11241664 C28.135281,2.76341696 28.7027628,3.59336297 29.0374722,4.53366148 C28.970308,4.55271515 28.893617,4.58574151 28.8952048,4.59590346 C28.9231502,4.73753573 28.7632582,4.88551921 28.898698,5.01603684 C28.9752302,5.0890759 29.0909813,5.11479835 29.2086377,5.10685932 C29.2180057,5.14512544 29.2265799,5.18323277 29.235154,5.22197523 C29.2195935,5.22657987 29.2041918,5.23007304 29.1887901,5.23515402 C29.0368371,5.28405843 28.8801207,5.35519212 28.8463004,5.52905684 C28.8193077,5.66687837 28.7308669,5.72419816 28.6363925,5.80517625 C28.4290251,5.98142267 28.2426167,6.17640521 28.3339155,6.49809463 C28.3564624,6.57669101 28.3105748,6.68228009 28.276437,6.76675135 C28.2056208,6.94204509 28.2407113,7.07176882 28.388536,7.19482375 C28.4680851,7.26071769 28.524611,7.3529692 28.6001905,7.42457923 C28.7573833,7.57240394 28.8693236,7.83312163 29.1651318,7.66481423 C29.1892664,7.65068276 29.2281677,7.6641791 29.2610352,7.66132105 C28.7191172,10.3472531 26.3421721,12.3759924 23.4998412,12.3759924 M20.4893617,1.50142903 C20.4650683,1.52826294 20.4429978,1.57510321 20.4147348,1.57939028 C20.364719,1.58685297 20.3142267,1.59320419 20.2638933,1.59892029 C20.3216894,1.5604954 20.3796443,1.52254684 20.439187,1.48650365 C20.4557002,1.49190219 20.4728485,1.49650683 20.4893617,1.50142903 M19.949349,1.82184821 C19.9850746,1.83994919 20.0258812,1.85630359 20.0579549,1.86710067 C20.102731,1.88250238 20.1713242,1.87456335 20.2108606,1.8488409 C20.3235948,1.77516672 20.3890124,1.82724674 20.4485551,1.91695776 C20.4714195,1.95173071 20.4939663,1.98586853 20.5163544,2.01984757 C20.4696729,2.02318196 20.4220387,2.03334392 20.3756748,2.02921562 C20.1738647,2.01111464 19.9714195,1.98046999 19.7700857,1.96316291 C19.8286758,1.91457606 19.8890124,1.86821213 19.949349,1.82184821 M23.4998412,0 C19.9156875,0 17,2.9158463 17,6.5 C17,10.0841537 19.9156875,13 23.4998412,13 C27.0841537,13 30,10.0843125 30,6.5 C30,2.9158463 27.0841537,0 23.4998412,0" transform="translate(-17.000000, 0.000000)"></path>
</svg>
